<svg class="svg-icon" style="width: 1em;height: 1em;vertical-align: middle;fill: currentColor;overflow: hidden;" viewBox="0 0 1024 1024" version="1.1" xmlns="http://www.w3.org/2000/svg"><path d="M185.29406738 895.97216797C159.0916748 895.97216797 137.91552734 874.79602051 137.91552734 848.59362793V208.20056152c0.41198731-12.77160645 10.87646484-22.90649414 23.73046875-22.90649413h687.0300293c13.10119629 0 23.73046875 10.62927247 23.73046875 23.73046875v212.75024413c0 52.3223877-42.43469239 94.75708008-94.75708008 94.75708009H725.40942383c-106.37512208-1.4831543-193.96362305 83.30383301-195.77636719 189.76135253 0.82397461 94.26269531 70.44982911 173.77624512 163.72375489 187.12463379-4.94384766 1.73034668-10.1348877 2.55432129-15.32592775 2.55432129h-492.7368164z" fill="#009A4A" /><path d="M730.18847656 706.45800781m-165.86608887 0a165.86608887 165.86608887 0 1 0 331.73217774 0 165.86608887 165.86608887 0 1 0-331.73217774 0Z" fill="#FF8505" /><path d="M398.53869628 565.39355469H256.40307617c-13.67797852 0-24.71923828-11.04125977-24.71923828-24.71923828s11.04125977-24.71923828 24.71923828-24.71923829h142.13562012c13.67797852 0 24.71923828 11.04125977 24.71923828 24.71923829s-11.12365723 24.71923828-24.71923829 24.71923828zM682.80993653 375.87939453H256.40307617c-13.67797852 0-24.71923828-11.04125977-24.71923828-24.71923828s11.04125977-24.71923828 24.71923828-24.71923828h426.40686036c13.67797852 0 24.71923828 11.04125977 24.71923827 24.71923828s-11.12365723 24.71923828-24.71923828 24.71923828zM540.67431641 470.63647461h-284.27124024c-13.67797852 0-24.71923828-11.04125977-24.71923828-24.71923828s11.04125977-24.71923828 24.71923828-24.71923828h284.27124024c13.67797852 0 24.71923828 11.04125977 24.71923828 24.71923828s-11.12365723 24.71923828-24.71923828 24.71923828z" fill="#F0F0F4" /><path d="M379.58728027 280.05114746c-41.85791016 0-75.80566406-33.94775391-75.80566405-75.80566406 0-10.46447754 8.48693848-18.95141602 18.95141601-18.95141601h75.80566406c-13.10119629 0-23.73046875-10.62927247-23.73046875-23.73046875S385.4375 137.91552734 398.53869628 137.91552734h236.8927002c13.10119629 0 23.73046875 10.62927247 23.73046875 23.73046875s-10.62927247 23.73046875-23.73046875 23.73046875h75.80566407c10.46447754 0 18.95141602 8.48693848 18.95141601 18.95141602 0 41.85791016-33.94775391 75.80566406-75.80566406 75.80566406H379.58728027z" fill="#FF8505" /><path d="M732.58459472 647.17797852c-9.0637207 0-16.47949219-7.41577148-16.47949219-16.47949219v-18.95141602c0-9.0637207 7.41577148-16.47949219 16.47949219-16.47949219s16.47949219 7.41577148 16.47949219 16.47949219v18.95141602c0 9.0637207-7.33337403 16.47949219-16.47949219 16.47949219zM732.58459472 817.6583252c-9.0637207 0-16.47949219-7.41577148-16.47949219-16.4794922v-18.95141601c0-9.0637207 7.41577148-16.47949219 16.47949219-16.47949219s16.47949219 7.41577148 16.47949219 16.47949219v18.95141601c0 9.0637207-7.33337403 16.47949219-16.47949219 16.47949219z" fill="#F0F0F4" /><path d="M730.27746582 794.17504883c-8.15734864 0-16.23229981-1.97753906-23.48327637-5.85021973l-0.24719238-0.16479492c-9.14611817-5.10864258-16.72668458-12.60681153-21.91772461-21.67053223l-0.24719238-0.49438476c-8.73413086-16.47949219-7.82775879-36.5020752 2.3071289-52.15759278l0.16479493-0.24719238c6.92138672-10.21728516 17.13867188-17.96264648 28.92150878-21.67053223l0.65917969-0.24719238 0.74157715-0.16479492c5.2734375-1.15356445 10.62927247-1.81274414 15.98510742-1.81274414 2.71911622-0.82397461 5.52062989-1.64794922 7.08618164-2.22473145 6.83898926-4.44946289 10.38208008-12.60681153 8.81652832-20.68176269-1.73034668-8.89892578-9.64050293-15.16113281-18.70422363-14.83154297h-0.16479492c-10.46447754 0.24719239-18.86901856 8.6517334-19.1986084 19.19860839-0.24719239 9.0637207-7.82775879 16.31469727-16.97387696 15.98510743-9.0637207-0.24719239-16.23229981-7.82775879-15.98510742-16.97387696 0.82397461-27.93273926 23.31848145-50.34484864 51.16882325-51.16882323 12.19482422-0.49438477 24.22485352 3.46069336 33.78295898 11.04125976 9.55810547 7.58056641 16.14990234 18.45703125 18.45703125 30.48706055 4.20227051 22.00012208-5.76782227 44.16503906-24.96643067 55.61828614-2.14233398 1.4831543-4.61425781 2.22473145-10.38208007 3.95507812-2.96630859 0.90637207-5.85021973 1.81274414-5.85021973 1.81274414l-2.55432129 0.74157714-2.71911621-0.08239745c-3.29589844-0.08239747-6.59179688 0.16479492-9.88769531 0.82397461-4.36706543 1.56555176-8.23974609 4.53186036-10.87646484 8.40454101-3.54309083 5.60302734-3.87268067 12.60681153-0.90637208 18.53942871 2.22473145 3.70788575 5.35583497 6.83898926 9.14611817 8.98132325 3.13110352 1.64794922 6.83898926 2.22473145 10.38208008 1.64794922l0.49438477-0.08239747c3.95507813-0.49438477 7.74536133-2.30712891 10.62927245-5.02624511 3.21350098-3.7902832 4.94384766-8.6517334 4.77905274-13.67797852-0.24719239-9.0637207 6.92138672-16.72668458 15.98510742-16.97387695 9.0637207-0.24719239 16.72668458 6.92138672 16.97387695 15.98510742 0.41198731 13.67797852-4.36706543 26.77917481-13.51318359 36.99645996l-0.74157715 0.74157715c-7.99255372 7.91015625-18.45703125 13.01879883-29.58068848 14.50195312-2.47192383 0.57678223-5.02624512 0.74157715-7.5805664 0.74157715z m8.98132324-106.12792969c-0.08239747 0.08239747-0.24719239 0.16479492-0.32958984 0.16479492l0.16479492-0.08239746c0.08239747 0 0.16479492-0.08239747 0.16479492-0.08239746z" fill="#F0F0F4" /><path d="M232.67260742 694.59277344h157.95593262v71.10900879H232.67260742v-71.10900879z m157.95593262-35.51330567l78.93676757 71.10900879-78.93676758 71.02661133V659.07946778z" fill="#F0F0F4" /></svg>