<svg class="svg-icon" style="width: 1em; height: 1em;vertical-align: middle;fill: currentColor;overflow: hidden;" viewBox="0 0 1024 1024" version="1.1" xmlns="http://www.w3.org/2000/svg"><path d="M983.2 214.464l-74.384 0 0 719.024c0 34.24-15.36 74.384-49.584 74.384l-694.24 0c-34.224 0-49.584-40.144-49.584-74.384L115.408 214.464 41.024 214.464c-17.12 0-26.688-19.296-24.8-43.392 1.344-17.072 13.872-30.992 30.992-30.992L171.2 140.08l167.36 0L338.56 65.712c0-44.544 6.944-49.584 49.584-49.584l247.936 0c41.888 0 49.584 5.968 49.584 49.584l0 74.384 167.36 0 123.968 0c17.12 0 30.992 13.872 30.992 30.992C1008 192.656 1000.32 214.464 983.2 214.464zM611.296 65.712 412.944 65.712l0 74.384 198.352 0L611.296 65.712zM834.448 274.384l0-29.968 0-29.952-30.432 0L220.224 214.464l-30.432 0 0 29.952 0 29.968 0 629.152c0 16.544 13.632 29.952 30.432 29.952l583.792 0c16.8 0 30.432-13.408 30.432-29.952L834.448 274.384zM685.68 412.816l49.584 0 0 371.904-49.584 0L685.68 412.816zM487.328 338.448l49.584 0 0 446.288-49.584 0L487.328 338.448zM288.976 412.816l49.584 0 0 371.904-49.584 0L288.976 412.816z"  /></svg>